<svg width="7" height="7" viewBox="0 0 7 7" fill="none" xmlns="http://www.w3.org/2000/svg">
<g clip-path="url(#clip0_121_1901)">
<path d="M1.55803 1.88861C1.92324 1.49269 2.47587 1.29199 3.2003 1.29199H3.4606V2.0258L3.25132 2.0677C2.8947 2.13903 2.64663 2.27933 2.51387 2.48524C2.4446 2.59616 2.40531 2.72317 2.39986 2.85383H3.2003C3.26934 2.85383 3.33555 2.88125 3.38436 2.93007C3.43318 2.97889 3.4606 3.0451 3.4606 3.11414V4.93628C3.4606 5.2234 3.22711 5.45689 2.93999 5.45689H1.37815C1.30912 5.45689 1.24291 5.42947 1.19409 5.38065C1.14527 5.33183 1.11785 5.26562 1.11785 5.19659V3.89505L1.11863 3.13522C1.11629 3.10633 1.06683 2.42172 1.55803 1.88861ZM5.80336 5.45689H4.24152C4.17249 5.45689 4.10628 5.42947 4.05746 5.38065C4.00864 5.33183 3.98122 5.26562 3.98122 5.19659V3.89505L3.982 3.13522C3.97965 3.10633 3.9302 2.42172 4.42139 1.88861C4.7866 1.49269 5.33923 1.29199 6.06367 1.29199H6.32397V2.0258L6.11469 2.0677C5.75807 2.13903 5.51 2.27933 5.37724 2.48524C5.30797 2.59616 5.26868 2.72317 5.26322 2.85383H6.06367C6.1327 2.85383 6.19891 2.88125 6.24773 2.93007C6.29655 2.97889 6.32397 3.0451 6.32397 3.11414V4.93628C6.32397 5.2234 6.09048 5.45689 5.80336 5.45689Z" fill="#C39624"/>
</g>
<defs>
<clipPath id="clip0_121_1901">
<rect width="6.24735" height="6.24735" fill="white" transform="translate(0.597168 0.25)"/>
</clipPath>
</defs>
</svg>
