<svg width="19" height="18" viewBox="0 0 19 18" fill="none" xmlns="http://www.w3.org/2000/svg">
<path d="M16.9335 18L10.6335 11.7C10.1335 12.1 9.5585 12.4167 8.9085 12.65C8.2585 12.8833 7.56683 13 6.8335 13C5.01683 13 3.4795 12.3707 2.2215 11.112C0.963497 9.85333 0.334163 8.316 0.333497 6.5C0.33283 4.684 0.962163 3.14667 2.2215 1.888C3.48083 0.629333 5.01816 0 6.8335 0C8.64883 0 10.1865 0.629333 11.4465 1.888C12.7065 3.14667 13.3355 4.684 13.3335 6.5C13.3335 7.23333 13.2168 7.925 12.9835 8.575C12.7502 9.225 12.4335 9.8 12.0335 10.3L18.3335 16.6L16.9335 18ZM6.8335 11C8.0835 11 9.14616 10.5627 10.0215 9.688C10.8968 8.81333 11.3342 7.75067 11.3335 6.5C11.3328 5.24933 10.8955 4.187 10.0215 3.313C9.1475 2.439 8.08483 2.00133 6.8335 2C5.58216 1.99867 4.51983 2.43633 3.6465 3.313C2.77316 4.18967 2.3355 5.252 2.3335 6.5C2.3315 7.748 2.76916 8.81067 3.6465 9.688C4.52383 10.5653 5.58616 11.0027 6.8335 11Z" fill="#E6B027"/>
</svg>
